{"glyphs":{":":{"x_min":0,"x_max":232,"ha":232,"o":"m 62 412 l 62 543 l 193 543 l 193 412 z m 62 81 l 62 212 l 193 212 l 193 81 z"},"$":{"x_min":0,"x_max":493,"ha":493,"o":"m 242 -89 l 242 -9 q 42 -2 31 237 l 160 264 q 164 104 251 104 q 285 104 301 124 q 317 145 317 179 q 317 205 312 226 q 306 247 293 266 q 280 284 267 298 q 253 312 231 331 l 125 423 q 78 464 55 509 q 32 553 32 619 q 32 709 84 761 q 135 813 225 818 l 225 894 l 267 894 l 267 818 q 315 815 349 797 q 383 778 402 747 q 422 716 431 681 q 441 646 444 600 l 318 575 q 317 600 315 618 q 312 636 307 654 q 302 673 293 684 q 285 696 271 703 q 257 709 237 708 q 205 706 187 686 q 170 667 170 633 q 170 594 185 569 q 200 544 233 515 l 338 423 q 365 399 385 377 q 404 354 422 326 q 440 297 449 262 q 458 228 458 189 q 458 108 411 54 q 363 0 283 -8 l 283 -89 z"},"?":{"x_min":0,"x_max":488,"ha":488,"o":"m 141 0 l 141 133 l 276 133 l 276 0 z m 146 208 l 146 334 q 183 367 210 396 q 238 426 264 462 q 290 499 303 539 q 317 579 316 620 q 315 658 294 680 q 272 703 239 703 q 206 703 188 681 q 171 660 175 625 q 175 604 183 583 l 57 557 q 47 599 47 613 q 34 707 85 764 q 136 821 238 821 q 340 821 396 767 q 451 713 451 615 q 451 568 436 525 q 422 481 394 441 q 367 402 338 371 q 309 340 269 304 l 269 208 z"},"<":{"x_min":0,"x_max":385,"ha":385,"o":"m 328 59 l 30 267 l 30 388 l 328 597 l 328 469 l 130 329 l 328 187 z"},"'":{"x_min":0,"x_max":319,"ha":319,"o":"m 67 537 l 67 810 l 184 810 l 137 537 z"},"=":{"x_min":0,"x_max":429,"ha":429,"o":"m 58 448 l 58 541 l 371 541 l 371 448 z m 58 265 l 58 357 l 371 357 l 371 265 z"},"a":{"x_min":0,"x_max":453,"ha":453,"o":"m 216 97 q 231 97 247 108 q 262 120 271 132 l 271 292 q 170 235 170 164 q 170 133 182 115 q 194 97 216 97 z m 164 -9 q 109 -9 74 33 q 39 76 39 129 q 39 179 56 217 q 72 254 110 281 q 148 308 173 320 q 198 333 250 353 q 264 358 271 361 l 271 410 q 271 449 262 467 q 253 485 226 485 q 180 485 179 421 l 177 385 l 46 390 q 46 393 47 401 q 47 409 47 411 q 53 502 101 544 q 148 587 237 587 q 322 587 364 541 q 405 494 405 409 l 405 145 q 405 79 416 0 l 292 0 q 281 57 278 85 q 266 45 237 18 q 208 -9 164 -9 z"},"L":{"x_min":0,"x_max":419,"ha":419,"o":"m 61 0 l 61 810 l 208 810 l 208 102 l 402 102 l 402 0 z"},"3":{"x_min":0,"x_max":492,"ha":492,"o":"m 252 -11 q 144 -11 92 49 q 41 109 41 218 l 41 247 l 179 247 l 179 225 q 180 163 196 134 q 211 104 253 104 q 272 104 285 111 q 299 117 307 127 q 314 137 319 155 q 323 172 324 189 q 326 207 326 232 q 326 297 305 331 q 284 364 231 367 q 229 367 221 367 q 212 368 210 368 l 210 484 q 226 484 229 484 q 283 486 304 512 q 326 539 326 600 q 326 654 309 681 q 293 708 251 708 q 234 708 221 702 q 208 696 200 686 q 192 676 188 661 q 183 646 181 629 q 180 613 179 592 l 179 564 l 41 564 l 41 602 q 41 706 95 762 q 150 819 251 819 q 354 819 408 764 q 463 708 463 605 q 463 536 434 490 q 404 444 354 430 q 407 412 435 363 q 463 314 463 234 q 463 119 413 54 q 362 -11 252 -11 z"},";":{"x_min":0,"x_max":247,"ha":247,"o":"m 61 437 l 61 571 l 193 571 l 193 437 z m 82 -80 l 67 -28 q 132 -23 132 44 l 61 44 l 61 177 l 195 177 l 195 54 q 195 -80 82 -80 z"},"J":{"x_min":0,"x_max":326,"ha":326,"o":"m 9 -17 l 9 86 q 74 86 96 106 q 117 126 117 188 l 117 810 l 265 810 l 264 185 q 264 132 255 95 q 247 59 226 33 q 205 7 169 -5 q 133 -17 80 -17 z"},"V":{"x_min":0,"x_max":517,"ha":517,"o":"m 187 0 l 23 810 l 154 810 l 260 246 l 361 810 l 495 810 l 330 0 z"},"\"":{"x_min":0,"x_max":373,"ha":373,"o":"m 228 537 l 228 810 l 347 810 l 295 537 z m 61 537 l 61 810 l 179 810 l 128 537 z"},"7":{"x_min":0,"x_max":430,"ha":430,"o":"m 96 0 l 253 703 l 40 703 l 40 810 l 390 810 l 390 728 l 230 0 z"},"S":{"x_min":0,"x_max":493,"ha":493,"o":"m 265 -10 q 51 -10 40 237 l 168 264 q 173 104 260 104 q 294 104 310 124 q 327 145 327 179 q 327 213 314 241 q 302 269 286 287 q 270 305 240 331 l 134 423 q 87 464 64 509 q 41 553 41 619 q 41 713 96 766 q 152 818 249 819 q 293 819 327 808 q 361 796 384 777 q 406 758 421 729 q 436 700 443 669 q 450 638 453 600 l 327 575 q 326 600 324 618 q 322 636 316 654 q 311 673 302 684 q 294 696 280 703 q 265 709 246 708 q 213 706 196 686 q 179 667 179 633 q 179 594 194 569 q 209 544 242 515 l 348 423 q 374 399 394 377 q 413 354 431 326 q 449 297 458 262 q 467 228 467 189 q 467 101 411 45 q 355 -10 265 -10 z"},"}":{"x_min":0,"x_max":355,"ha":355,"o":"m 43 -197 l 43 -101 q 61 -101 72 -100 q 83 -99 92 -93 q 101 -88 105 -82 q 109 -76 112 -61 q 114 -45 115 -30 q 115 -15 115 14 l 115 144 q 115 223 134 263 q 152 303 192 312 q 152 322 134 362 q 115 402 115 481 l 115 611 q 115 640 115 655 q 114 670 112 686 q 109 701 105 707 q 101 713 92 718 q 83 724 72 725 q 61 726 43 726 l 43 822 q 80 822 107 820 q 134 818 156 813 q 179 808 193 801 q 208 794 219 781 q 229 769 235 755 q 241 741 245 718 q 249 695 250 673 q 250 650 250 615 l 250 498 q 250 465 251 445 q 252 425 254 408 q 257 391 260 383 q 264 375 271 369 q 279 363 288 362 q 297 360 312 360 l 312 265 q 297 265 288 263 q 279 262 271 256 q 264 250 260 242 q 257 234 254 217 q 252 200 251 180 q 250 160 250 127 l 250 10 q 250 -25 250 -48 q 249 -70 245 -93 q 241 -116 235 -130 q 229 -144 219 -156 q 208 -169 193 -176 q 179 -183 156 -188 q 134 -193 107 -195 q 80 -197 43 -197 z"},"Z":{"x_min":0,"x_max":425,"ha":425,"o":"m 35 0 l 35 97 l 250 708 l 46 708 l 46 810 l 401 810 l 401 737 l 176 102 l 401 102 l 401 0 z"},"x":{"x_min":0,"x_max":413,"ha":413,"o":"m 9 0 l 134 310 l 12 578 l 146 578 l 219 418 l 282 578 l 400 578 l 277 291 l 409 0 l 275 0 l 195 175 l 129 0 z"},")":{"x_min":0,"x_max":290,"ha":290,"o":"m 32 -192 l 32 -99 q 44 -99 54 -93 q 65 -88 73 -77 q 82 -66 88 -52 q 95 -38 100 -18 q 104 2 108 23 q 112 44 115 72 q 117 100 119 125 q 120 151 121 184 q 122 217 122 246 q 123 275 123 312 q 123 350 122 378 q 122 406 121 440 q 121 475 119 500 q 118 525 115 553 q 113 582 109 602 q 105 623 101 643 q 96 664 89 678 q 83 691 74 703 q 66 714 55 719 q 44 725 32 725 l 32 818 q 75 818 109 802 q 144 787 167 763 q 189 740 206 699 q 222 658 230 619 q 239 581 244 523 q 249 466 250 421 q 251 377 251 312 q 251 249 250 205 q 249 162 244 104 q 239 47 230 8 q 222 -30 206 -71 q 189 -112 167 -137 q 144 -161 109 -177 q 75 -192 32 -192 z"},"&":{"x_min":0,"x_max":591,"ha":591,"o":"m 245 476 q 269 511 289 564 q 309 618 309 662 q 309 686 294 701 q 280 715 256 715 q 231 715 218 694 q 204 672 204 641 q 204 632 205 622 q 206 613 208 602 q 209 591 211 583 q 213 574 216 562 q 220 550 222 543 q 224 536 228 524 q 232 511 234 507 q 235 502 240 490 q 244 478 245 476 z m 229 92 q 282 92 319 140 q 219 312 215 321 q 195 292 184 254 q 172 217 172 180 q 172 142 187 117 q 202 92 229 92 z m 228 -10 q 147 -10 98 41 q 50 92 50 175 q 50 246 82 308 q 114 369 165 416 q 157 431 138 467 q 119 502 109 523 q 99 544 90 576 q 81 608 81 638 q 81 717 128 768 q 175 819 253 819 q 330 819 380 776 q 430 732 430 658 q 430 621 418 584 q 406 548 383 515 q 360 482 341 460 q 322 438 295 411 q 290 406 288 403 l 392 226 q 414 270 424 386 l 538 386 q 538 262 469 146 q 480 132 500 121 q 520 110 540 110 l 540 -9 q 529 -12 521 -12 q 507 -12 493 -8 q 479 -3 470 0 q 461 4 447 15 q 433 26 428 30 q 424 34 408 49 q 393 63 392 64 q 365 29 323 10 q 280 -10 228 -10 z"},"_":{"x_min":0,"x_max":356,"ha":356,"o":"m 0 -153 l 0 -56 l 356 -56 l 356 -153 z"},"v":{"x_min":0,"x_max":403,"ha":403,"o":"m 125 0 l 13 578 l 146 578 l 204 159 l 260 578 l 392 578 l 280 0 z"},"O":{"x_min":0,"x_max":562,"ha":562,"o":"m 281 -10 q 156 -10 102 58 q 47 126 47 257 l 47 556 q 47 620 60 667 q 72 715 99 750 q 126 784 171 802 q 217 819 281 819 q 405 819 460 752 q 514 685 514 556 l 514 257 q 514 193 502 145 q 489 97 462 62 q 435 26 390 8 q 344 -10 281 -10 z m 364 222 l 364 590 q 364 619 361 639 q 358 658 350 676 q 341 693 324 701 q 307 710 281 710 q 254 710 237 701 q 220 693 211 676 q 203 658 200 639 q 197 619 197 590 l 197 222 q 197 199 199 183 q 201 166 206 149 q 211 133 220 123 q 229 112 244 106 q 259 100 281 100 q 302 100 317 106 q 333 112 342 123 q 351 133 356 149 q 361 166 363 183 q 364 199 364 222 z"},"(":{"x_min":0,"x_max":318,"ha":318,"o":"m 287 -192 q 243 -192 209 -177 q 175 -161 152 -137 q 129 -113 113 -72 q 97 -31 88 8 q 79 46 74 103 q 70 160 69 204 q 67 248 67 311 q 67 376 69 420 q 70 465 74 522 q 79 580 88 619 q 97 657 113 698 q 129 739 152 763 q 175 787 209 802 q 243 818 287 818 l 287 725 q 271 725 258 716 q 246 708 236 690 q 227 673 220 652 q 213 632 209 600 q 205 568 202 539 q 199 510 198 468 q 197 426 196 392 q 196 358 196 311 q 196 263 196 228 q 197 193 198 153 q 200 112 202 83 q 205 53 210 22 q 214 -8 221 -29 q 228 -49 237 -66 q 246 -83 259 -91 q 271 -99 287 -99 z"},"C":{"x_min":0,"x_max":538,"ha":538,"o":"m 278 -10 q 226 -10 186 3 q 146 17 119 40 q 93 63 77 98 q 61 133 54 173 q 47 212 47 262 l 47 544 q 47 597 54 638 q 61 679 77 714 q 93 749 119 771 q 146 793 185 806 q 225 819 278 819 q 338 819 381 803 q 424 787 449 755 q 474 724 485 682 q 497 641 497 585 l 497 516 l 354 516 l 354 584 q 354 645 348 666 q 335 707 286 710 q 282 710 278 710 q 260 710 246 706 q 232 701 223 692 q 214 682 209 671 q 204 661 201 643 q 198 626 198 611 q 197 597 197 574 l 197 231 q 197 160 215 130 q 232 100 278 100 q 294 100 306 103 q 318 107 326 113 q 334 118 340 129 q 345 139 348 148 q 351 157 353 173 q 354 189 354 201 q 354 212 354 231 l 354 304 l 497 304 l 497 237 q 497 192 490 156 q 484 120 469 88 q 453 56 429 35 q 404 14 366 2 q 328 -10 278 -10 z"},"W":{"x_min":0,"x_max":718,"ha":718,"o":"m 148 0 l 33 810 l 157 810 l 223 288 l 310 810 l 409 810 l 497 287 l 563 810 l 685 810 l 569 0 l 452 0 l 360 541 l 270 0 z"},"A":{"x_min":0,"x_max":520,"ha":520,"o":"m 207 284 l 315 284 l 261 617 z m 19 0 l 183 810 l 337 810 l 501 0 l 364 0 l 331 188 l 191 188 l 158 0 z"},"f":{"x_min":0,"x_max":305,"ha":305,"o":"m 81 0 l 81 481 l 18 481 l 18 578 l 81 578 l 81 609 q 81 645 83 669 q 86 693 95 717 q 104 740 119 754 q 135 768 161 776 q 187 785 223 785 q 251 785 298 779 l 298 678 q 294 678 281 680 q 267 683 261 683 q 236 683 227 667 q 217 652 217 623 l 217 578 l 298 578 l 298 481 l 217 481 l 217 0 z"},"Q":{"x_min":0,"x_max":562,"ha":562,"o":"m 364 222 l 364 590 q 364 619 361 639 q 358 658 350 676 q 341 693 324 701 q 307 710 281 710 q 254 710 237 701 q 220 693 211 676 q 203 658 200 639 q 197 619 197 590 l 197 222 q 197 199 199 183 q 201 166 206 149 q 211 133 220 123 q 229 112 244 106 q 259 100 281 100 q 302 100 317 106 q 333 112 342 123 q 351 133 356 149 q 361 166 363 183 q 364 199 364 222 z m 453 -162 q 417 -145 372 -101 q 328 -56 297 -9 q 292 -10 281 -10 q 156 -10 102 58 q 47 126 47 257 l 47 556 q 47 620 60 667 q 72 715 99 750 q 126 784 171 802 q 217 819 281 819 q 405 819 460 752 q 514 685 514 556 l 514 257 q 514 68 402 14 q 450 -43 480 -62 z"},"w":{"x_min":0,"x_max":594,"ha":594,"o":"m 114 0 l 25 578 l 138 578 l 188 204 l 249 578 l 349 578 l 407 201 l 461 578 l 569 578 l 478 0 l 362 0 l 298 362 l 232 0 z"},"-":{"x_min":0,"x_max":353,"ha":353,"o":"m 56 271 l 56 366 l 297 366 l 297 271 z"},"E":{"x_min":0,"x_max":426,"ha":426,"o":"m 61 0 l 61 810 l 399 810 l 399 706 l 208 706 l 208 473 l 359 473 l 359 369 l 208 369 l 208 102 l 402 102 l 402 0 z"},"s":{"x_min":0,"x_max":396,"ha":396,"o":"m 202 -9 q 130 -9 84 31 q 39 71 21 146 l 125 184 q 136 136 155 111 q 175 86 204 87 q 226 88 240 103 q 253 118 252 139 q 250 170 195 218 l 118 284 q 34 356 36 435 q 37 504 83 546 q 128 587 199 587 q 267 587 310 546 q 352 505 365 436 l 275 398 q 256 488 206 489 q 184 489 171 476 q 158 462 158 443 q 158 417 207 374 l 286 302 q 306 285 319 271 q 332 257 346 237 q 361 217 368 194 q 375 171 375 145 q 375 71 326 31 q 278 -9 202 -9 z"},">":{"x_min":0,"x_max":385,"ha":385,"o":"m 56 59 l 56 187 l 254 329 l 56 469 l 56 597 l 355 388 l 355 267 z"},"l":{"x_min":0,"x_max":253,"ha":253,"o":"m 61 0 l 61 810 l 198 810 l 198 0 z"},"8":{"x_min":0,"x_max":500,"ha":500,"o":"m 250 483 q 315 483 315 611 q 315 657 299 685 q 284 713 250 713 q 216 713 200 685 q 184 657 184 611 q 184 483 250 483 z m 326 229 q 326 362 250 362 q 173 362 173 229 q 173 207 175 190 q 176 173 181 154 q 186 136 194 124 q 202 111 217 103 q 231 95 250 95 q 270 95 284 104 q 298 112 306 124 q 314 136 319 155 q 324 174 325 190 q 326 207 326 229 z m 250 -10 q 38 -10 39 235 q 40 373 134 427 q 53 488 51 605 q 50 707 101 763 q 152 819 250 819 q 349 819 399 762 q 449 706 448 605 q 446 486 366 427 q 460 371 461 235 q 463 -10 250 -10 z"},"\\":{"x_min":0,"x_max":396,"ha":396,"o":"m 265 0 l 36 810 l 131 810 l 360 0 z"},"e":{"x_min":0,"x_max":447,"ha":447,"o":"m 177 351 l 276 351 l 276 406 q 276 450 265 469 q 254 488 226 488 q 198 488 188 466 q 177 445 177 388 z m 228 -9 q 128 -9 85 45 q 42 100 42 207 l 42 371 q 42 478 85 532 q 129 587 227 587 q 279 587 314 572 q 350 557 369 526 q 389 495 397 455 q 406 415 406 358 l 406 282 l 177 282 l 177 195 q 177 177 177 167 q 178 157 179 143 q 181 129 184 121 q 187 113 192 105 q 198 97 207 94 q 215 90 227 90 q 254 90 265 110 q 276 129 276 166 l 276 199 l 405 199 l 405 176 q 405 86 361 38 q 316 -9 228 -9 z"},"b":{"x_min":0,"x_max":478,"ha":478,"o":"m 251 89 q 266 89 276 97 q 286 105 291 122 q 295 139 297 156 q 298 173 298 198 l 298 397 q 298 417 296 433 q 294 449 289 463 q 284 478 273 485 q 263 493 248 492 q 220 492 190 470 l 190 107 q 218 89 251 89 z m 298 -9 q 244 -9 190 42 l 190 0 l 54 0 l 54 810 l 190 810 l 190 534 q 244 587 307 587 q 338 586 362 573 q 385 559 399 539 q 412 519 421 491 q 429 463 432 440 q 435 416 435 392 l 435 202 q 435 158 428 121 q 420 84 405 54 q 389 24 362 8 q 335 -9 298 -9 z"},"%":{"x_min":0,"x_max":967,"ha":967,"o":"m 321 0 l 550 810 l 646 810 l 417 0 z m 750 -3 q 658 -3 616 48 q 574 100 574 202 l 574 245 q 574 348 615 397 q 656 446 750 446 q 845 446 886 399 q 928 351 928 249 l 928 199 q 928 98 886 47 q 844 -3 750 -3 z m 750 92 q 766 92 777 98 q 788 104 794 113 q 800 122 804 137 q 807 152 808 167 q 809 181 809 202 l 809 246 q 809 268 808 282 q 807 296 804 310 q 801 325 795 333 q 789 340 778 345 q 767 351 750 351 q 735 351 724 345 q 713 340 707 332 q 701 324 698 310 q 694 295 693 281 q 692 268 692 246 l 692 202 q 692 175 694 157 q 696 140 702 124 q 708 107 720 100 q 732 92 750 92 z m 216 363 q 124 363 82 415 q 40 467 40 568 l 40 611 q 40 715 80 764 q 121 813 216 813 q 311 813 352 765 q 393 717 393 615 l 393 566 q 393 464 351 414 q 309 363 216 363 z m 216 458 q 231 458 242 464 q 253 470 259 479 q 265 488 269 503 q 272 518 273 533 q 274 548 274 569 l 274 613 q 274 635 273 649 q 272 663 269 677 q 266 691 260 699 q 253 707 242 712 q 231 717 216 717 q 200 717 189 712 q 178 707 172 699 q 166 691 163 676 q 160 662 159 648 q 158 634 158 612 l 158 568 q 158 542 160 524 q 162 506 167 490 q 173 474 185 466 q 197 458 216 458 z"},"m":{"x_min":0,"x_max":717,"ha":717,"o":"m 52 0 l 52 578 l 182 578 l 182 527 q 240 588 319 588 q 392 588 416 518 q 477 588 562 588 q 610 588 639 553 q 668 518 668 451 l 668 0 l 539 0 l 539 439 q 539 471 528 484 q 518 498 497 497 q 461 496 425 463 q 425 461 426 458 q 426 454 426 451 l 426 0 l 296 0 l 296 439 q 296 471 286 484 q 275 498 254 497 q 220 496 182 463 l 182 0 z"},"#":{"x_min":0,"x_max":510,"ha":510,"o":"m 208 374 l 291 374 l 304 472 l 221 472 z m 47 0 l 83 280 l 37 280 l 38 374 l 97 374 l 109 472 l 38 472 l 39 567 l 124 567 l 156 810 l 268 810 l 236 567 l 318 567 l 351 810 l 462 810 l 430 567 l 474 567 l 473 472 l 416 472 l 402 374 l 472 374 l 471 280 l 389 280 l 353 0 l 241 0 l 277 280 l 195 280 l 158 0 z"},",":{"x_min":0,"x_max":210,"ha":210,"o":"m 61 -137 l 46 -86 q 75 -79 93 -56 q 111 -34 111 0 l 40 0 l 40 132 l 174 132 l 174 9 q 174 -115 61 -137 z"},"n":{"x_min":0,"x_max":474,"ha":474,"o":"m 52 0 l 52 578 l 189 578 l 189 521 q 259 587 330 587 q 379 587 402 551 q 425 515 425 462 l 425 0 l 288 0 l 288 432 q 288 459 280 472 q 272 485 250 485 q 225 484 189 458 l 189 0 z"},"h":{"x_min":0,"x_max":479,"ha":479,"o":"m 55 0 l 55 810 l 191 810 l 191 522 q 259 587 335 587 q 355 587 372 580 q 388 573 399 561 q 409 549 416 532 q 423 516 426 499 q 429 481 429 462 l 429 0 l 293 0 l 293 432 q 293 459 285 472 q 277 485 254 485 q 228 484 191 457 l 191 0 z"},"z":{"x_min":0,"x_max":368,"ha":368,"o":"m 33 0 l 33 90 l 200 477 l 48 477 l 48 578 l 344 578 l 344 500 l 177 102 l 342 102 l 342 0 z"},"B":{"x_min":0,"x_max":555,"ha":555,"o":"m 208 479 l 254 479 q 319 479 343 507 q 368 535 368 601 q 368 635 360 656 q 352 678 333 688 q 313 699 290 703 q 267 706 229 706 l 208 706 z m 208 104 l 262 104 q 328 104 354 135 q 379 166 379 236 q 379 310 350 343 q 322 375 254 375 l 208 375 z m 61 0 l 61 810 l 259 810 q 315 810 357 800 q 398 790 431 766 q 463 743 480 702 q 497 661 496 603 q 496 453 377 436 q 449 422 484 373 q 520 324 520 235 q 521 120 462 60 q 404 0 293 0 z"},"K":{"x_min":0,"x_max":530,"ha":530,"o":"m 61 0 l 61 810 l 208 810 l 208 458 l 367 810 l 508 810 l 353 447 l 524 0 l 377 0 l 237 381 l 208 328 l 208 0 z"},"R":{"x_min":0,"x_max":555,"ha":555,"o":"m 208 464 l 244 464 q 309 464 337 492 q 364 520 364 587 q 364 652 340 680 q 316 708 252 708 l 208 708 z m 61 0 l 61 810 l 246 810 q 310 810 356 799 q 402 789 436 764 q 470 739 487 697 q 503 655 503 594 q 503 518 481 469 q 458 421 406 399 l 518 0 l 370 0 l 273 370 l 208 370 l 208 0 z"},"T":{"x_min":0,"x_max":422,"ha":422,"o":"m 140 0 l 140 701 l 4 701 l 4 810 l 418 810 l 418 701 l 287 701 l 287 0 z"},"P":{"x_min":0,"x_max":519,"ha":519,"o":"m 208 465 l 255 465 q 318 465 340 490 q 362 515 362 581 q 362 618 359 639 q 356 659 345 676 q 334 693 313 699 q 292 706 256 706 l 208 706 z m 61 0 l 61 810 l 293 810 q 500 810 500 580 q 500 467 444 414 q 387 362 284 362 l 208 362 l 208 0 z"},"|":{"x_min":0,"x_max":253,"ha":253,"o":"m 66 -163 l 67 810 l 186 810 l 186 -163 z"},"t":{"x_min":0,"x_max":332,"ha":332,"o":"m 213 -8 q 174 -7 146 5 q 119 18 104 42 q 89 65 82 95 q 76 124 76 163 l 76 488 l 19 488 l 19 578 l 76 578 l 76 748 l 213 748 l 213 578 l 301 578 l 301 488 l 213 488 l 213 154 q 213 126 225 114 q 238 101 265 101 q 284 100 307 104 l 307 -1 q 249 -9 213 -8 z"},"M":{"x_min":0,"x_max":682,"ha":682,"o":"m 59 0 l 72 810 l 224 810 l 341 241 l 461 810 l 609 810 l 623 0 l 512 0 l 502 558 l 385 0 l 299 0 l 181 560 l 172 0 z"},"g":{"x_min":0,"x_max":464,"ha":464,"o":"m 225 266 q 259 266 269 291 q 279 316 279 381 q 279 447 270 473 q 260 499 226 499 q 191 499 181 473 q 170 447 170 381 q 170 357 171 341 q 172 325 176 310 q 179 294 185 285 q 191 276 201 271 q 210 266 225 266 z m 251 -79 q 293 -79 312 -68 q 332 -58 332 -34 q 333 -8 319 4 q 304 16 266 20 l 174 28 q 144 -6 144 -36 q 144 -51 152 -60 q 159 -69 183 -74 q 207 -79 251 -79 z m 252 -175 q 226 -175 207 -175 q 188 -174 162 -172 q 137 -170 118 -166 q 100 -162 81 -154 q 62 -147 50 -137 q 38 -127 30 -112 q 22 -96 22 -77 q 22 -4 104 45 q 45 65 42 110 q 39 142 55 164 q 70 187 108 218 q 76 242 60 279 q 43 315 43 377 q 43 483 90 535 q 136 587 223 587 q 313 587 347 530 q 358 543 380 562 q 401 580 425 591 l 444 600 l 477 524 q 459 520 425 506 q 390 493 378 486 q 388 469 395 438 q 401 407 401 375 q 401 177 228 177 q 214 177 189 181 q 165 186 157 188 q 141 164 142 150 q 143 131 192 126 q 198 125 244 120 q 290 116 298 115 q 371 107 404 73 q 438 38 438 -26 q 438 -103 395 -139 q 352 -175 252 -175 z"},"j":{"x_min":0,"x_max":253,"ha":253,"o":"m 65 669 l 65 785 l 203 785 l 203 669 z m -15 -150 l -15 -52 q 3 -56 14 -56 q 66 -56 66 3 l 66 578 l 202 578 l 202 -12 q 202 -81 164 -120 q 125 -160 56 -160 q 14 -160 -15 -150 z"},"i":{"x_min":0,"x_max":249,"ha":249,"o":"m 57 669 l 57 785 l 194 785 l 194 669 z m 57 0 l 57 578 l 193 578 l 193 0 z"},"y":{"x_min":0,"x_max":417,"ha":417,"o":"m 55 -155 l 55 -56 q 118 -56 137 -44 q 157 -32 150 6 q 144 41 130 91 q 117 149 68 337 q 19 526 6 578 l 140 578 l 212 198 l 275 578 l 408 578 l 271 -30 q 256 -99 205 -127 q 155 -155 72 -155 z"},"@":{"x_min":0,"x_max":935,"ha":935,"o":"m 466 198 q 485 202 503 219 q 521 236 528 270 l 561 500 q 555 508 536 508 q 498 508 466 477 q 434 445 416 396 q 398 347 398 292 q 398 249 415 221 q 432 193 466 198 z m 473 -134 q 271 -134 160 -19 q 48 97 58 306 q 62 427 98 523 q 134 618 196 681 q 257 744 343 777 q 428 810 532 810 q 608 810 671 788 q 733 766 776 729 q 818 691 847 640 q 875 589 887 530 q 898 472 896 408 q 894 362 884 318 q 873 273 852 233 q 831 193 802 162 q 773 132 733 114 q 692 96 645 96 q 600 96 568 118 q 537 140 530 180 q 521 148 497 126 q 474 104 438 101 q 386 96 348 122 q 310 148 292 193 q 275 237 276 292 q 277 333 286 375 q 296 418 316 460 q 335 502 362 535 q 389 567 428 588 q 466 608 510 608 q 543 608 578 563 l 588 600 l 692 600 l 640 247 q 634 200 639 186 q 644 173 656 171 q 693 168 725 199 q 758 230 778 284 q 797 338 799 400 q 802 452 794 498 q 786 544 765 584 q 745 625 713 654 q 681 683 632 699 q 583 716 523 716 q 442 716 376 686 q 311 656 267 602 q 223 548 198 473 q 173 399 169 310 q 160 142 241 51 q 322 -41 486 -41 q 578 -41 674 -10 l 694 -102 q 573 -134 473 -134 z"},".":{"x_min":0,"x_max":214,"ha":214,"o":"m 46 0 l 46 135 l 179 135 l 179 0 z"},"p":{"x_min":0,"x_max":477,"ha":477,"o":"m 249 89 q 264 89 274 97 q 285 106 289 122 q 294 139 296 156 q 297 173 297 198 l 297 397 q 297 417 295 433 q 293 449 288 463 q 282 478 271 485 q 261 493 246 492 q 219 492 189 469 l 189 107 q 218 89 249 89 z m 52 -190 l 52 578 l 189 578 l 189 534 q 243 587 306 587 q 336 586 360 573 q 384 559 397 539 q 411 519 419 491 q 428 463 431 440 q 434 416 434 392 l 434 202 q 434 158 426 121 q 419 84 403 54 q 388 24 361 8 q 333 -9 297 -9 q 243 -9 189 43 l 189 -190 z"},"X":{"x_min":0,"x_max":500,"ha":500,"o":"m 10 0 l 173 430 l 15 810 l 153 810 l 258 559 l 348 810 l 478 810 l 321 404 l 489 0 l 352 0 l 238 271 l 139 0 z"},"*":{"x_min":0,"x_max":413,"ha":413,"o":"m 162 458 l 82 506 l 157 612 l 44 655 l 76 739 l 181 682 l 168 809 l 270 809 l 257 682 l 362 739 l 394 655 l 281 611 l 357 506 l 275 458 l 219 575 z"},"Y":{"x_min":0,"x_max":489,"ha":489,"o":"m 174 0 l 174 308 l 9 810 l 147 810 l 247 487 l 343 810 l 479 810 l 315 308 l 315 0 z"},"c":{"x_min":0,"x_max":439,"ha":439,"o":"m 226 -9 q 127 -9 84 46 q 42 101 42 206 l 42 373 q 42 478 84 532 q 127 587 226 587 q 318 587 360 543 q 401 500 401 409 l 401 362 l 274 362 l 274 411 q 274 455 263 472 q 253 490 227 490 q 198 490 188 469 q 178 449 178 393 l 178 182 q 178 127 189 108 q 200 88 227 88 q 254 88 264 107 q 274 126 274 164 l 274 226 l 401 226 l 401 171 q 401 82 359 36 q 316 -9 226 -9 z"},"!":{"x_min":0,"x_max":230,"ha":230,"o":"m 89 188 l 47 809 l 184 809 l 137 188 z m 46 0 l 46 132 l 179 132 l 179 0 z"},"/":{"x_min":0,"x_max":396,"ha":396,"o":"m 36 0 l 265 810 l 360 810 l 131 0 z"},"[":{"x_min":0,"x_max":343,"ha":343,"o":"m 57 -188 l 58 810 l 298 810 l 298 749 l 179 749 l 178 -128 l 298 -128 l 298 -188 z"},"6":{"x_min":0,"x_max":509,"ha":509,"o":"m 263 98 q 284 98 299 109 q 313 119 321 139 q 329 160 332 183 q 334 207 334 239 q 334 262 334 274 q 334 286 333 305 q 332 324 329 334 q 326 345 321 358 q 315 371 308 378 q 301 384 289 389 q 278 394 263 394 q 215 394 190 346 l 190 224 q 190 98 263 98 z m 262 -10 q 218 -10 183 4 q 147 18 123 42 q 99 65 82 99 q 66 133 58 173 q 51 212 51 258 l 51 531 q 51 581 57 622 q 62 663 77 700 q 92 738 115 763 q 139 789 176 804 q 213 819 262 819 q 463 819 467 615 l 467 604 l 333 604 q 333 659 318 685 q 304 710 263 710 q 223 710 207 671 q 190 632 190 542 l 190 446 q 204 470 232 484 q 261 498 299 499 q 473 500 473 267 q 473 206 462 157 q 451 108 427 70 q 403 32 361 11 q 319 -10 262 -10 z"},"r":{"x_min":0,"x_max":347,"ha":347,"o":"m 54 0 l 54 578 l 191 578 l 191 489 q 220 541 249 563 q 279 585 312 585 q 323 585 333 583 l 333 448 q 310 457 286 457 q 256 456 234 442 q 212 428 191 396 l 191 0 z"},"2":{"x_min":0,"x_max":500,"ha":500,"o":"m 45 0 l 45 98 l 243 407 q 248 415 267 444 q 287 473 293 484 q 299 496 311 519 q 322 543 326 564 q 331 584 331 608 q 331 656 314 681 q 297 706 262 704 q 188 700 188 574 l 188 540 l 51 540 l 51 575 q 51 630 62 674 q 74 718 99 751 q 123 784 164 802 q 206 819 261 819 q 364 819 416 764 q 469 708 469 607 q 469 572 462 542 q 456 511 442 481 q 428 452 416 432 q 403 412 382 380 q 379 377 378 375 q 377 373 375 370 q 373 368 372 365 l 205 112 l 448 112 l 448 0 z"},"{":{"x_min":0,"x_max":339,"ha":339,"o":"m 312 -197 q 275 -197 248 -195 q 221 -193 198 -188 q 176 -183 162 -176 q 147 -169 136 -156 q 125 -144 120 -130 q 114 -116 110 -93 q 106 -70 105 -48 q 104 -25 104 10 l 104 127 q 104 160 104 180 q 103 200 101 217 q 98 234 94 242 q 91 250 83 256 q 76 262 67 263 q 58 265 43 265 l 43 360 q 58 360 67 362 q 76 363 83 369 q 91 375 94 383 q 98 391 101 408 q 103 425 104 445 q 104 465 104 498 l 104 615 q 104 650 105 673 q 106 695 110 718 q 114 741 120 755 q 125 769 136 781 q 147 794 162 801 q 176 808 198 813 q 221 818 248 820 q 275 822 312 822 l 312 726 q 294 726 283 725 q 272 724 263 718 q 254 713 250 707 q 246 701 243 686 q 241 670 240 655 q 240 640 240 611 l 240 481 q 240 402 221 362 q 203 322 163 312 q 203 303 221 263 q 240 223 240 144 l 240 14 q 240 -15 240 -30 q 241 -45 243 -61 q 246 -76 250 -82 q 254 -88 263 -93 q 272 -99 283 -100 q 294 -101 312 -101 z"},"9":{"x_min":0,"x_max":509,"ha":509,"o":"m 254 416 q 299 416 324 463 l 324 585 q 324 711 253 711 q 232 711 218 701 q 203 690 196 670 q 188 649 185 626 q 182 602 182 570 q 182 552 182 543 q 182 534 183 518 q 184 502 185 494 q 186 485 188 473 q 191 460 194 453 q 198 446 203 438 q 209 430 216 426 q 223 422 233 419 q 242 416 254 416 z m 252 -10 q 51 -10 48 196 l 48 206 l 183 206 q 183 150 197 125 q 211 99 253 99 q 292 99 308 138 q 324 177 324 268 l 324 363 q 294 312 216 311 q 178 311 147 323 q 117 334 98 355 q 78 376 65 406 q 53 437 47 471 q 42 506 42 547 q 42 607 54 656 q 65 704 90 741 q 114 778 156 799 q 197 819 253 819 q 308 819 349 799 q 390 779 415 743 q 440 707 452 660 q 464 613 464 555 l 464 278 q 464 228 458 187 q 453 146 438 109 q 423 71 399 46 q 376 20 339 5 q 301 -10 252 -10 z"}," ":{"x_min":0,"x_max":244,"ha":244,"o":""},"I":{"x_min":0,"x_max":274,"ha":274,"o":"m 65 0 l 65 810 l 210 810 l 210 0 z"},"H":{"x_min":0,"x_max":583,"ha":583,"o":"m 62 0 l 62 810 l 209 810 l 209 471 l 374 471 l 374 810 l 521 810 l 521 0 l 374 0 l 374 366 l 209 366 l 209 0 z"},"4":{"x_min":0,"x_max":510,"ha":510,"o":"m 156 313 l 273 313 l 273 656 z m 273 0 l 273 198 l 36 198 l 36 326 l 241 810 l 404 810 l 404 313 l 488 313 l 488 198 l 404 198 l 404 0 z"},"~":{"x_min":0,"x_max":468,"ha":468,"o":"m 313 348 q 291 348 260 362 q 229 377 200 392 q 171 406 154 406 q 141 406 120 394 q 100 382 83 364 l 37 425 q 60 456 96 482 q 131 509 158 509 q 181 509 211 494 q 242 480 271 466 q 299 451 316 451 q 338 451 386 495 l 435 439 q 414 405 378 376 q 343 348 313 348 z"},"D":{"x_min":0,"x_max":553,"ha":553,"o":"m 61 0 l 61 810 l 249 810 q 322 810 372 795 q 421 780 451 749 q 480 717 493 671 q 505 625 505 557 l 505 265 q 505 196 493 147 q 480 99 451 65 q 422 32 374 16 q 325 0 255 0 z m 208 104 l 250 104 q 272 104 289 107 q 305 111 316 117 q 328 122 335 134 q 343 146 347 157 q 351 167 353 188 q 354 208 355 223 q 355 238 355 267 l 355 562 q 355 591 354 609 q 354 626 350 644 q 346 662 339 672 q 332 682 320 690 q 309 698 291 701 q 273 704 249 704 l 208 704 z"},"^":{"x_min":0,"x_max":465,"ha":465,"o":"m 33 478 l 171 810 l 293 810 l 433 478 l 310 478 l 232 700 l 156 478 z"},"0":{"x_min":0,"x_max":510,"ha":510,"o":"m 45 225 l 45 581 q 45 692 97 756 q 150 819 255 819 q 360 819 413 755 q 466 691 466 581 l 466 225 q 466 118 412 53 q 357 -11 255 -11 q 153 -11 99 53 q 45 118 45 225 z m 326 227 l 326 579 q 326 594 325 607 q 324 620 322 635 q 319 649 314 660 q 309 671 302 681 q 294 690 282 695 q 271 700 255 700 q 237 700 224 693 q 210 685 203 674 q 196 663 192 645 q 188 628 186 613 q 185 598 185 579 l 185 227 q 185 108 255 108 q 326 108 326 227 z"},"F":{"x_min":0,"x_max":410,"ha":410,"o":"m 61 0 l 61 810 l 393 810 l 393 708 l 208 708 l 208 472 l 356 472 l 356 368 l 208 368 l 208 0 z"},"`":{"x_min":0,"x_max":298,"ha":298,"o":"m 171 610 l 50 810 l 189 810 l 248 610 z"},"k":{"x_min":0,"x_max":481,"ha":481,"o":"m 54 1 l 54 811 l 189 811 l 189 347 l 334 578 l 482 578 l 340 347 l 479 0 l 336 0 l 233 284 l 189 222 l 189 1 z"},"u":{"x_min":0,"x_max":472,"ha":472,"o":"m 143 -9 q 94 -9 71 27 q 48 63 48 116 l 48 578 l 185 578 l 185 144 q 185 117 193 104 q 201 91 224 91 q 248 91 282 116 l 282 578 l 418 578 l 418 0 l 282 0 l 282 54 q 213 -9 143 -9 z"},"]":{"x_min":0,"x_max":320,"ha":320,"o":"m 22 -188 l 22 -128 l 142 -128 l 141 749 l 22 749 l 22 810 l 263 810 l 263 -188 z"},"U":{"x_min":0,"x_max":563,"ha":563,"o":"m 282 -10 q 228 -10 188 3 q 148 16 123 39 q 97 62 82 97 q 66 133 60 175 q 54 217 54 272 l 54 810 l 197 810 l 197 257 q 197 229 199 208 q 200 188 205 167 q 210 145 219 131 q 228 118 244 109 q 260 101 282 101 q 305 101 321 109 q 336 118 345 131 q 354 145 359 167 q 364 188 365 208 q 366 228 366 257 l 366 810 l 509 810 l 509 272 q 509 217 503 175 q 497 133 482 97 q 466 62 441 39 q 416 16 376 3 q 336 -10 282 -10 z"},"o":{"x_min":0,"x_max":454,"ha":454,"o":"m 226 -9 q 133 -9 87 43 q 42 96 42 193 l 42 384 q 42 482 87 534 q 133 587 226 587 q 320 587 366 534 q 412 482 412 384 l 412 193 q 412 96 366 43 q 320 -9 226 -9 z m 227 87 q 243 87 254 94 q 264 102 269 117 q 273 132 275 147 q 276 161 276 184 l 276 394 q 276 412 276 424 q 275 436 272 450 q 270 464 264 472 q 259 480 250 486 q 240 491 227 491 q 210 491 199 484 q 189 476 184 461 q 180 445 178 431 q 177 417 177 394 l 177 184 q 177 166 177 154 q 178 142 181 128 q 184 114 189 106 q 194 98 204 93 q 213 87 227 87 z"},"N":{"x_min":0,"x_max":543,"ha":543,"o":"m 61 0 l 61 810 l 162 810 l 360 351 l 360 810 l 482 810 l 482 0 l 386 0 l 186 482 l 186 0 z"},"+":{"x_min":0,"x_max":435,"ha":435,"o":"m 167 207 l 167 370 l 26 370 l 26 461 l 167 461 l 167 622 l 264 622 l 264 461 l 409 461 l 409 370 l 264 370 l 264 207 z"},"G":{"x_min":0,"x_max":558,"ha":558,"o":"m 263 -11 q 148 -11 98 61 q 47 133 47 270 l 47 534 q 47 604 58 654 q 69 705 95 743 q 121 781 167 800 q 212 819 278 819 q 398 819 450 760 q 502 701 502 582 l 502 542 l 361 542 l 361 584 q 361 611 360 628 q 359 645 354 662 q 350 680 341 689 q 332 698 317 704 q 302 710 280 710 q 263 710 250 706 q 237 702 229 696 q 220 689 214 678 q 208 667 204 656 q 201 646 199 629 q 198 613 197 600 q 197 587 197 567 l 197 241 q 197 167 215 134 q 233 100 284 100 q 310 100 328 110 q 346 120 356 140 q 366 160 370 186 q 374 212 374 250 l 374 316 l 287 316 l 287 411 l 507 411 l 507 0 l 411 0 l 400 82 q 364 -11 263 -11 z"},"q":{"x_min":0,"x_max":474,"ha":474,"o":"m 232 88 q 256 88 286 104 l 286 473 q 258 491 232 491 q 204 491 192 466 q 180 441 180 402 l 180 190 q 180 160 183 139 q 187 118 199 103 q 211 88 232 88 z m 286 -190 l 286 41 q 238 -9 184 -9 q 113 -9 78 41 q 43 91 43 201 l 43 369 q 43 406 47 437 q 51 468 61 496 q 71 524 87 544 q 103 564 127 575 q 151 587 182 587 q 237 587 286 541 l 286 578 l 422 578 l 422 -190 z"},"d":{"x_min":0,"x_max":473,"ha":473,"o":"m 231 88 q 256 88 284 104 l 284 473 q 256 491 231 491 q 204 491 192 466 q 180 441 180 402 l 180 190 q 180 159 183 139 q 187 118 198 103 q 210 88 231 88 z m 184 -9 q 113 -9 78 41 q 42 91 42 201 l 42 369 q 42 415 50 453 q 57 490 72 521 q 87 553 115 570 q 143 587 182 587 q 236 587 284 542 l 284 810 l 421 810 l 421 0 l 284 0 l 284 40 q 238 -9 184 -9 z"},"1":{"x_min":0,"x_max":500,"ha":500,"o":"m 217 0 l 217 653 l 86 618 l 86 722 q 211 763 250 810 l 355 810 l 355 0 z"},"5":{"x_min":0,"x_max":499,"ha":499,"o":"m 254 -11 q 194 -11 153 6 q 112 22 90 56 q 67 89 58 132 q 48 175 48 234 l 185 234 q 185 201 187 179 q 189 157 197 136 q 204 115 220 105 q 235 95 259 95 q 274 95 286 101 q 297 106 305 113 q 312 120 318 135 q 323 149 326 161 q 329 172 330 195 q 331 218 331 232 q 332 247 332 275 q 332 306 330 327 q 329 347 325 369 q 320 390 312 402 q 305 415 291 422 q 276 430 256 430 q 228 430 208 411 q 188 391 180 360 l 61 360 l 67 810 l 435 810 l 435 683 l 186 683 l 177 492 q 193 510 222 521 q 250 532 285 533 q 333 535 368 518 q 403 501 424 468 q 445 435 456 390 q 466 345 466 287 q 466 233 461 191 q 456 149 442 110 q 428 70 405 45 q 381 20 343 4 q 305 -11 254 -11 z"}}}
